<svg width="40" height="40" viewBox="0 0 34 44" fill="none" xmlns="http://www.w3.org/2000/svg">
<path d="M2.41665 0.166656H31.5833C32.1358 0.166656 32.6658 0.38615 33.0565 0.776851C33.4472 1.16755 33.6666 1.69746 33.6666 2.24999V42.1312C33.6669 42.3175 33.6172 42.5004 33.5227 42.6609C33.4282 42.8215 33.2924 42.9537 33.1294 43.0439C32.9665 43.1341 32.7823 43.179 32.5961 43.1738C32.4099 43.1687 32.2285 43.1137 32.0708 43.0146L17 33.5625L1.92915 43.0125C1.77158 43.1115 1.59037 43.1665 1.40436 43.1717C1.21835 43.177 1.03433 43.1323 0.871428 43.0423C0.70853 42.9524 0.572702 42.8204 0.478069 42.6602C0.383435 42.5 0.333451 42.3173 0.333313 42.1312V2.24999C0.333313 1.69746 0.552807 1.16755 0.943508 0.776851C1.33421 0.38615 1.86411 0.166656 2.41665 0.166656Z" fill="white"/>
</svg>
