<svg width="44" height="42" viewBox="0 0 44 42" fill="none" xmlns="http://www.w3.org/2000/svg">
<path d="M22.8958 0.166656C34.4021 0.166656 43.7292 9.49374 43.7292 21C43.7292 32.5062 34.4021 41.8333 22.8958 41.8333C18.0917 41.8333 13.5375 40.2 9.87708 37.2667L0.0479126 38.4958L3.63125 28.9417C2.59791 26.4458 2.0625 23.7583 2.0625 21C2.0625 9.49374 11.3896 0.166656 22.8958 0.166656ZM22.8958 4.33332C13.6917 4.33332 6.22916 11.7958 6.22916 21C6.22916 23.4542 6.75833 25.8292 7.76666 28.0042L8.13333 28.7958L6.36875 33.5042L11.1917 32.9021L11.8958 33.5208C14.9167 36.1792 18.7875 37.6667 22.8958 37.6667C32.1 37.6667 39.5625 30.2042 39.5625 21C39.5625 11.7958 32.1 4.33332 22.8958 4.33332ZM14.6667 10.5833H22.5625C29.6875 10.5833 33.8958 14.6583 34.1042 20.4354L34.1104 20.8833V20.9396C34.1104 26.8021 30.0229 31.1937 22.9917 31.4083L22.4437 31.4167H14.6667V10.5833H22.5625H14.6667ZM22.6479 15.7042H20.3396V26.2979H22.6479C25.9104 26.2979 28.1167 24.5375 28.2812 21.4125L28.2917 21.0312V20.9729C28.2917 17.6396 26.0417 15.7021 22.6479 15.7021V15.7042Z" fill="white"/>
</svg>
