<svg width="40" height="40" viewBox="0 0 40 40" fill="none" xmlns="http://www.w3.org/2000/svg">
<path d="M36.3733 3.9469C33.1721 0.492712 28.5705 -0.802609 24.1689 0.492712L18.767 14.0936L24.369 15.6048C25.3693 15.8207 26.1696 17.116 25.7695 18.1954C25.7695 18.4113 25.7695 18.4113 25.5694 18.6272L21.568 27.2627C21.3679 28.1262 20.7677 28.558 19.9674 28.558C19.5673 28.558 19.3672 28.558 19.1671 28.3421C18.1668 27.9103 17.7666 26.615 18.1668 25.5356L20.9678 19.2749L15.5658 17.7637C14.3654 17.3319 13.7652 16.2525 13.9653 15.173C13.9653 14.9571 13.9653 14.9571 13.9653 14.9571L18.967 2.43569C13.365 -1.88204 5.56224 0.0609375 1.96094 6.32166C-1.24021 11.7188 -0.439918 18.6272 3.76159 23.1608L18.767 39.3523C19.5673 40.2159 20.7677 40.2159 21.568 39.3523L36.5734 23.1608C41.175 17.7637 41.175 9.34407 36.3733 3.9469Z" fill="white"/>
</svg>
